<svg id="Layer_1" data-name="Layer 1" xmlns="http://www.w3.org/2000/svg" viewBox="0 0 2499.99 861.5"><defs><style>.cls-1{fill:#fff;}</style></defs><title>sparkLogo</title><path class="cls-1" d="M1366.5,275.25l72.51-203L1288.5,248.74,1209.48.25,1131,248.74,980.5,72.25l72,203L897,241.75,1114.5,430.23l95-193,95,193L1522,241.75Z" transform="translate(-0.01 -0.25)"/><path class="cls-1" d="M270,601.75c-25-16-59.52-30-108-43-24.5-6-46.48-14.5-61.5-27.51C93,524.75,87,517.74,83,509.25s-6.52-18.5-6.52-31c0-30.49,11.52-51,28-64.49s38-20,57.5-20c27.52,0,48.5,10,64,25.52,15,16,24.5,38,25.51,63l.5,9.49,54.49-3-.5-9.5c-1.49-38-16-73-41-98.48S204.5,339.25,161.5,339.25c-28.5,0-63,9.5-90.5,32a121.8,121.8,0,0,0-34.5,44C28,433.27,23,454.74,23,479.75c0,19.5,4,36.52,11,51.49,10.5,22.51,27.49,39.5,48,52.53s43.49,21.48,67,28c54,14,85,28,101.49,42a51.76,51.76,0,0,1,16,21.52c3,7.48,4,16,4,26,0,23.5-10,50-29,70s-46,34-81.5,34c-19.5,0-44-4.53-64-20-10-7.52-19-18-26-32.52s-12.48-33-14-56.5l-.5-9L0,690.74l.5,9.5c5,65.51,31,106.5,63,130s68.5,30,95,30c52,0,94-21,122-51.49s43-70,43-107c0-15-2-30-7-44-7-21-22-40-46.51-56Zm403.5-254h-156v498H572V676.22H676a158.68,158.68,0,0,0,111-45.48c29.5-29,49-70.52,49-120.5a167,167,0,0,0-42.5-110.5C765.5,368.74,724.48,347.75,673.5,347.75Zm-102,54.49h102c35,0,61.5,14,79.48,34.49,18.53,20.52,28,48,28,73,0,36-14,63.51-34,82.5a106.93,106.93,0,0,1-72.5,29h-103v-219ZM970,833.75l8.48,4,40.52,19,109.49-234.5,81-174,79,169,2,4.5,40.48,87,69,148,49.51-23L1210,320.24Zm930-211c25.51-29,41.49-69,41.49-112.49A167,167,0,0,0,1899,399.75c-27.48-30.51-68.5-51.48-119.49-51.48h-156v498H1678V637.74l224,224,38.5-38.5-153.5-154a140.51,140.51,0,0,0,14.5.5c37.55.5,73-18,98.53-47Zm-222.5-220.5h102c35,0,61.5,14,79.48,34.5,18.53,20.51,28,48,28,73,0,36-14,63.5-34,82.5a107,107,0,0,1-72.5,29h-103v-219ZM2500,822.75l-240-240.5,209-209-38-38.5-235.5,235.5V347.75H2141v498h54.47v-251l266,266Z" transform="translate(-0.01 -0.25)"/></svg>